<svg width="50" height="39" viewBox="0 0 50 39" fill="none" xmlns="http://www.w3.org/2000/svg">
<g id="Vector 1">
<g id="Vector 1_2">
<path d="M37.7643 2.73815C31.4558 13.4949 21.7868 12.6427 2.41548 8.30698C22.0314 12.9722 21.7548 20.4972 11.2908 36.2618C21.7756 20.602 33.3825 19.5012 48.7094 29.9214C34.1828 19.9588 31.7082 13.2561 37.7643 2.73815Z" fill="white"/>
<path d="M49 30.12C48.903 30.0534 48.8061 29.9872 48.7094 29.9214M48.7094 29.9214C33.3825 19.5012 21.7756 20.602 11.2908 36.2618C21.7548 20.4972 22.0314 12.9722 2.41548 8.30698C21.7868 12.6427 31.4558 13.4949 37.7643 2.73815C31.7082 13.2561 34.1828 19.9588 48.7094 29.9214Z" stroke="white"/>
</g>
</g>
</svg>
